<svg id="Capa_1" data-name="Capa 1" xmlns="http://www.w3.org/2000/svg" viewBox="0 0 271.66 265.11"><defs><style>.cls-1{fill:#fff;}</style></defs><path class="cls-1" d="M225.28,88.23c-1.64-2-70.44-84.82-153.68-8.13-25.53-2-36.77,3.57-36.77,3.57s10.22-25.29,46-43.91C178.09-2.08,224.13,86,225.28,88.23Z"/><path class="cls-1" d="M99.79,147.79A24.59,24.59,0,0,1,78,172.16c-.41.05-.81.09-1.23.11H22.83v-8.43A5.87,5.87,0,0,1,28.7,158H72.82a10,10,0,0,0,0-19.91H47.75a23.33,23.33,0,0,1-3.47-.25,24.25,24.25,0,0,1,0-48,22.76,22.76,0,0,1,3.42-.25H86.66V99a5.87,5.87,0,0,1-5.87,5.88H48.49a9.19,9.19,0,0,0,0,18.38H75.1c.54,0,1.07,0,1.6.06A24.59,24.59,0,0,1,99.79,147.79Z"/><path class="cls-1" d="M179.68,127.76s5.45-4.51,4.09-15.32c-.3-8-4.67-13.43-9.44-17a30.85,30.85,0,0,0-18.45-5.92h-51v14h56.94c.25.13,4.27,2.31,5.46,6.24,0,0,0,0,0,0a9.64,9.64,0,0,1,.8,3.87,9.87,9.87,0,0,1-7.49,9.59H121.47V112.44H104.88v60.17h16.59l0-.34h0v.34h47s19.83-3.15,22.47-21.7C192.88,134,179.68,127.76,179.68,127.76ZM175,148.59a10.1,10.1,0,0,1-10.19,9.21H121.47V138.06h43.66A9.87,9.87,0,0,1,175,148.59Z"/><rect class="cls-1" x="193.62" y="89.55" width="18.02" height="83.06"/><rect class="cls-1" x="213.94" y="157.8" width="38.68" height="14.81"/><path class="cls-1" d="M99.79,244.35c-29.38-2.21-67-41.7-72.45-62.63H47.75S55,225.12,99.79,244.35Z"/><path class="cls-1" d="M99.79,186.1a10.34,10.34,0,0,0-2.45-.3H84.7v28.77h6.47v-8.85l4.64-.09h0l3.47-.07.5-.11a10,10,0,0,0,0-19.35Zm0,12.31a4.28,4.28,0,0,1-2.45,1.64v.13H91.26v-8.63h6.08v.13a4.31,4.31,0,0,1,2.45,6.73Z"/><polygon class="cls-1" points="116.15 191.55 116.15 196.65 129.43 196.65 129.43 202.4 116.15 202.4 116.15 208.27 131.47 208.27 131.47 214.01 109.9 214.01 109.9 185.8 131.47 185.8 131.47 191.55 116.15 191.55"/><path class="cls-1" d="M152.32,204.81a9.84,9.84,0,0,0-3.54-19h-14v28.77h6.64v-9.19h4.24l6.07,9.19h8.11Zm-2.7-4.9a4.07,4.07,0,0,1-.61.05,3.44,3.44,0,0,1-.46,0h-6.82v-8.34H149a4.18,4.18,0,0,1,.61,8.32Z"/><path class="cls-1" d="M45,148.74c-12,0-17.7,2.17-20,3.44a7.34,7.34,0,0,1-3.55.9H21v-20S28.41,147.08,45,148.74Z"/><polygon class="cls-1" points="171.69 184.9 175.97 177.75 181.78 179.48 175.97 184.9 171.69 184.9"/><path class="cls-1" d="M186.55,185.73v16.86a12.31,12.31,0,0,1-.52,3.56,12.55,12.55,0,0,1-24.58-3.56V185.8h6.87v17.48a5.68,5.68,0,0,0,11.36,0V185.73Z"/></svg>